HIERARCHY
ROOT joint_Root
{
	OFFSET 0.0 0.0 0.0
	CHANNELS 6 Xposition Yposition Zposition Zrotation Xrotation Yrotation 
	JOINT Hips
	{
		OFFSET 4.5925 91.4895 -427.239
		CHANNELS 6 Xposition Yposition Zposition Zrotation Xrotation Yrotation 
		JOINT Spine
		{
			OFFSET 15.7357 0.0 0.0
			CHANNELS 6 Xposition Yposition Zposition Zrotation Xrotation Yrotation 
			JOINT Chest
			{
				OFFSET 8.98455 -0.406207 0.0
				CHANNELS 6 Xposition Yposition Zposition Zrotation Xrotation Yrotation 
				JOINT Neck
				{
					OFFSET 16.3773 0.0 0.0
					CHANNELS 6 Xposition Yposition Zposition Zrotation Xrotation Yrotation 
					JOINT Head
					{
						OFFSET 6.45672 0.0 0.0
						CHANNELS 6 Xposition Yposition Zposition Zrotation Xrotation Yrotation 
						End Site
						{
							OFFSET 0.0 0.0 0.0
						}
					}
				}
				JOINT Shoulder_L
				{
					OFFSET 12.9942 -0.242716 4.98039
					CHANNELS 6 Xposition Yposition Zposition Zrotation Xrotation Yrotation 
					JOINT UpperArm_L
					{
						OFFSET 5.34809 0.0 0.0
						CHANNELS 6 Xposition Yposition Zposition Zrotation Xrotation Yrotation 
						JOINT LowerArm_L
						{
							OFFSET 24.3286 1.87007e-05 0.0
							CHANNELS 6 Xposition Yposition Zposition Zrotation Xrotation Yrotation 
							JOINT Hand_L
							{
								OFFSET 22.2916 0.0 0.0
								CHANNELS 6 Xposition Yposition Zposition Zrotation Xrotation Yrotation 
								End Site
								{
									OFFSET 0.0 0.0 0.0
								}
							}
						}
					}
				}
				JOINT Shoulder_R
				{
					OFFSET 12.9945 -0.242716 -4.98039
					CHANNELS 6 Xposition Yposition Zposition Zrotation Xrotation Yrotation 
					JOINT UpperArm_R
					{
						OFFSET -5.34813 0.0 0.0
						CHANNELS 6 Xposition Yposition Zposition Zrotation Xrotation Yrotation 
						JOINT LowerArm_R
						{
							OFFSET -24.3289 0.000322201 0.0
							CHANNELS 6 Xposition Yposition Zposition Zrotation Xrotation Yrotation 
							JOINT Hand_R
							{
								OFFSET -22.2915 -0.000108084 0.0
								CHANNELS 6 Xposition Yposition Zposition Zrotation Xrotation Yrotation 
								End Site
								{
									OFFSET 0.0 0.0 0.0
								}
							}
						}
					}
				}
			}
		}
		JOINT UpperLeg_L
		{
			OFFSET -2.19248 -6.46944 0.0
			CHANNELS 6 Xposition Yposition Zposition Zrotation Xrotation Yrotation 
			JOINT LowerLeg_L
			{
				OFFSET 39.0811 0.0 -1.23785e-05
				CHANNELS 6 Xposition Yposition Zposition Zrotation Xrotation Yrotation 
				JOINT Foot_L
				{
					OFFSET 40.9854 0.0 -1.26872e-05
					CHANNELS 6 Xposition Yposition Zposition Zrotation Xrotation Yrotation 
					JOINT Toes_L
					{
						OFFSET 11.7543 0.0 0.0
						CHANNELS 6 Xposition Yposition Zposition Zrotation Xrotation Yrotation 
						End Site
						{
							OFFSET 0.0 0.0 0.0
						}
					}
				}
			}
		}
		JOINT UpperLeg_R
		{
			OFFSET -2.19251 6.46944 0.0
			CHANNELS 6 Xposition Yposition Zposition Zrotation Xrotation Yrotation 
			JOINT LowerLeg_R
			{
				OFFSET -39.0811 -0.00228153 -0.0401928
				CHANNELS 6 Xposition Yposition Zposition Zrotation Xrotation Yrotation 
				JOINT Foot_R
				{
					OFFSET -40.9854 0.0 0.0
					CHANNELS 6 Xposition Yposition Zposition Zrotation Xrotation Yrotation 
					JOINT Toes_R
					{
						OFFSET -11.7543 0.0 0.0
						CHANNELS 6 Xposition Yposition Zposition Zrotation Xrotation Yrotation 
						End Site
						{
							OFFSET 0.0 0.0 0.0
						}
					}
				}
			}
		}
	}
}
MOTION
Frames:	9
Frame Time:	0.0333333
0.000000 0.000000 0.000000 0.000000 0.000000 -0.000000 -0.948202 91.341700 2.045850 89.474500 -3.292480 3.200750 15.735700 0.000005 -0.000001 86.674300 87.693800 -87.004800 8.984550 -0.406207 -0.000000 -3.162020 -0.235948 -0.667630 16.377300 -0.000001 -0.000001 5.917960 -2.398180 2.403970 6.456720 -0.000001 -0.000000 -0.990318 -1.206550 0.803644 12.994200 -0.242716 4.980390 -84.623000 -10.572000 -62.841400 5.348090 -0.000007 -0.000001 -52.270500 -51.013800 -103.459000 24.328600 0.000019 0.000005 23.407900 16.138000 -57.299200 22.291600 -0.000001 0.000005 21.919500 5.345570 -1.246510 12.994500 -0.242716 -4.980390 93.338200 -8.968870 -69.486900 -5.348130 -0.000001 -0.000004 -55.573600 -48.226100 -108.150000 -24.328900 0.000322 -0.000009 9.057550 6.693480 -53.831900 -22.291500 -0.000108 -0.000004 18.512900 5.530930 -7.828070 -2.192480 -6.469440 -0.000000 -175.512000 -12.879900 -3.027420 39.081100 -0.000007 -0.000012 -0.175920 0.355171 26.349900 40.985400 -0.000006 -0.000013 -0.818479 4.216600 -69.803000 11.754300 -0.000000 0.000003 -0.000264 -0.002338 -16.665000 -2.192510 6.469440 -0.000001 176.022000 21.907000 178.922000 -39.081100 -0.002282 -0.040193 0.003257 0.000113 25.492500 -40.985400 0.000008 0.000006 7.321410 14.248200 -72.209700 -11.754300 -0.000006 -0.000006 -0.000235 -0.003861 -16.730600
0.000000 0.000000 0.000000 0.000000 0.000000 -0.000000 -0.959170 91.346000 1.959500 89.454400 -3.375900 3.270760 15.735700 0.000005 -0.000001 88.073300 87.546300 -88.372500 8.984550 -0.406207 -0.000000 -2.861680 -0.137188 -0.601825 16.377300 -0.000001 -0.000001 5.479120 -2.348260 2.482110 6.456720 -0.000001 -0.000000 -1.009240 -1.148000 0.783212 12.994200 -0.242716 4.980390 -85.128500 -9.624730 -62.989600 5.348090 -0.000007 -0.000001 -49.866400 -50.351000 -98.889200 24.328600 0.000019 0.000005 23.103900 13.048500 -62.115200 22.291600 -0.000001 0.000005 22.089400 5.320110 -0.499253 12.994500 -0.242716 -4.980390 92.950900 -8.052700 -69.797500 -5.348130 -0.000001 -0.000004 -52.341800 -48.097400 -103.481000 -24.328900 0.000322 -0.000009 9.073020 5.448710 -59.270800 -22.291500 -0.000108 -0.000004 18.188800 5.501670 -6.600300 -2.192480 -6.469440 -0.000000 -175.418000 -13.177600 -3.007290 39.081100 -0.000007 -0.000012 -0.177985 0.358812 26.383500 40.985400 -0.000006 -0.000013 -0.776277 4.446080 -69.762500 11.754300 -0.000000 0.000003 -0.000267 -0.002360 -16.665800 -2.192510 6.469440 -0.000001 175.970000 22.006900 178.942000 -39.081100 -0.002282 -0.040193 -0.013121 0.034477 25.483200 -40.985400 0.000008 0.000006 7.067180 14.541200 -72.076600 -11.754300 -0.000006 -0.000006 -0.000115 -0.001915 -16.651600
0.000000 0.000000 0.000000 0.000000 0.000000 -0.000000 -0.959145 91.334800 1.861900 89.412800 -3.528310 3.377650 15.735700 0.000005 -0.000001 90.103900 87.374400 -90.357500 8.984550 -0.406207 -0.000000 -2.514650 0.032270 -0.506623 16.377300 -0.000001 -0.000001 4.901470 -2.291250 2.485920 6.456720 -0.000001 -0.000000 -0.974634 -1.177730 0.872863 12.994200 -0.242716 4.980390 -85.712600 -8.669570 -63.556900 5.348090 -0.000007 -0.000001 -46.647100 -49.184400 -92.034900 24.328600 0.000019 0.000005 23.355300 9.467550 -69.150000 22.291600 -0.000001 0.000005 22.225400 5.298040 0.127063 12.994500 -0.242716 -4.980390 92.455800 -6.848710 -70.219500 -5.348130 -0.000001 -0.000004 -48.122700 -47.290800 -96.943400 -24.328900 0.000322 -0.000009 9.271600 4.063600 -66.537200 -22.291500 -0.000108 -0.000004 18.115400 5.476780 -5.626520 -2.192480 -6.469440 -0.000000 -175.342000 -13.341400 -3.011940 39.081100 -0.000007 -0.000012 -0.178099 0.356690 26.533600 40.985400 -0.000006 -0.000013 -0.752949 4.496170 -69.785100 11.754300 -0.000000 0.000003 -0.000280 -0.002456 -16.669300 -2.192510 6.469440 -0.000001 175.896000 22.158400 178.953000 -39.081100 -0.002282 -0.040193 -0.030461 0.070601 25.564200 -40.985400 0.000008 0.000006 6.827460 14.924300 -71.982000 -11.754300 -0.000006 -0.000006 -0.000120 -0.002001 -16.655100
0.000000 0.000000 0.000000 0.000000 0.000000 -0.000000 -0.941602 91.314200 1.761390 89.422500 -3.629120 3.559320 15.735700 0.000005 -0.000001 91.465600 87.149600 -91.682600 8.984550 -0.406207 -0.000000 -2.066740 0.164378 -0.430816 16.377300 -0.000001 -0.000001 4.096990 -2.298130 2.449890 6.456720 -0.000001 -0.000000 -0.920952 -1.240390 0.924810 12.994200 -0.242716 4.980390 -86.347900 -7.631770 -64.331100 5.348090 -0.000007 -0.000001 -42.832000 -47.182600 -83.405000 24.328600 0.000019 0.000005 23.254500 5.488340 -77.456400 22.291600 -0.000001 0.000005 22.123600 5.286000 0.461310 12.994500 -0.242716 -4.980390 91.889700 -5.428050 -70.772900 -5.348130 -0.000001 -0.000004 -43.355500 -45.597100 -88.969400 -24.328900 0.000322 -0.000009 9.681420 2.589540 -75.169500 -22.291500 -0.000108 -0.000004 17.950400 5.459280 -4.973940 -2.192480 -6.469440 -0.000000 -175.314000 -13.484800 -2.990400 39.081100 -0.000007 -0.000012 -0.180489 0.358417 26.728800 40.985400 -0.000006 -0.000013 -0.719910 4.529140 -69.809800 11.754300 -0.000000 0.000003 -0.000266 -0.002353 -16.665600 -2.192510 6.469440 -0.000001 175.751000 22.211800 178.990000 -39.081100 -0.002282 -0.040193 -0.050528 0.111758 25.721900 -40.985400 0.000008 0.000006 6.434680 15.228900 -71.865900 -11.754300 -0.000006 -0.000006 -0.000035 -0.000595 -16.598000
0.000000 0.000000 0.000000 0.000000 0.000000 -0.000000 -0.908695 91.301100 1.635780 89.414700 -3.659330 3.768910 15.735700 0.000005 -0.000001 92.029400 86.916300 -92.189800 8.984550 -0.406207 -0.000000 -1.602150 0.231462 -0.317592 16.377300 -0.000001 -0.000001 3.296270 -2.264440 2.321990 6.456720 -0.000001 -0.000000 -0.995072 -1.235630 0.897629 12.994200 -0.242716 4.980390 -87.116000 -6.277000 -65.263000 5.348090 -0.000007 -0.000001 -38.451000 -43.950000 -73.616600 24.328600 0.000019 0.000005 22.637600 1.696880 -85.942700 22.291600 -0.000001 0.000005 21.897400 5.289600 0.361682 12.994500 -0.242716 -4.980390 91.298800 -3.844060 -71.318000 -5.348130 -0.000001 -0.000004 -38.557900 -42.415900 -80.166600 -24.328900 0.000322 -0.000009 9.969410 1.012540 -84.263900 -22.291500 -0.000108 -0.000004 17.673800 5.448880 -4.599250 -2.192480 -6.469440 -0.000000 -175.290000 -13.558000 -2.933220 39.081100 -0.000007 -0.000012 -0.176597 0.348174 26.894800 40.985400 -0.000006 -0.000013 -0.668304 4.562910 -69.821800 11.754300 -0.000000 0.000003 -0.000271 -0.002391 -16.666900 -2.192510 6.469440 -0.000001 175.664000 22.201000 179.046000 -39.081100 -0.002282 -0.040193 -0.059201 0.128914 25.869000 -40.985400 0.000008 0.000006 6.259470 15.287000 -71.790900 -11.754300 -0.000006 -0.000006 -0.000067 -0.001126 -16.619600
0.000000 0.000000 0.000000 0.000000 0.000000 -0.000000 -0.874412 91.280700 1.501970 89.409200 -3.581690 3.915260 15.735700 0.000005 -0.000001 90.859600 86.727900 -90.978200 8.984550 -0.406207 -0.000000 -1.222460 0.107464 -0.235942 16.377300 -0.000001 -0.000001 2.752550 -2.297610 2.188690 6.456720 -0.000001 -0.000000 -1.150650 -1.002180 0.853926 12.994200 -0.242716 4.980390 -87.911800 -4.780550 -66.372100 5.348090 -0.000007 -0.000001 -33.936600 -39.139400 -63.056700 24.328600 0.000019 0.000005 21.982900 -1.567830 -93.879100 22.291600 -0.000001 0.000005 21.342100 5.302800 -0.009756 12.994500 -0.242716 -4.980390 90.671800 -2.106750 -72.315400 -5.348130 -0.000001 -0.000004 -33.642900 -37.611100 -70.473100 -24.328900 0.000322 -0.000009 9.279720 -0.485881 -92.979100 -22.291500 -0.000108 -0.000004 17.349300 5.441980 -4.355040 -2.192480 -6.469440 -0.000000 -175.271000 -13.576600 -3.016400 39.081100 -0.000007 -0.000012 -0.179881 0.351071 27.129900 40.985400 -0.000006 -0.000013 -0.601476 4.675750 -69.833200 11.754300 -0.000000 0.000003 -0.000283 -0.002476 -16.670000 -2.192510 6.469440 -0.000001 175.561000 22.287200 179.034000 -39.081100 -0.002282 -0.040193 -0.077002 0.164429 26.032400 -40.985400 0.000008 0.000006 5.930840 15.439300 -71.678900 -11.754300 -0.000006 -0.000006 -0.029263 -0.034957 -16.552800
0.000000 0.000000 0.000000 0.000000 0.000000 -0.000000 -0.842219 91.269500 1.392050 89.447800 -3.437530 4.035760 15.735700 0.000005 -0.000001 88.862200 86.548200 -88.940400 8.984550 -0.406207 -0.000000 -0.863791 -0.131172 -0.157190 16.377300 -0.000001 -0.000001 2.178840 -2.100040 1.978050 6.456720 -0.000001 -0.000000 -1.333270 -0.873482 0.822226 12.994200 -0.242716 4.980390 -88.662800 -3.183180 -67.201800 5.348090 -0.000007 -0.000001 -30.531300 -32.088800 -53.042100 24.328600 0.000019 0.000005 21.316500 -3.980690 -100.088000 22.291600 -0.000001 0.000005 20.785700 5.326180 -0.673951 12.994500 -0.242716 -4.980390 90.110000 -0.370620 -73.510600 -5.348130 -0.000001 -0.000004 -29.031800 -30.818600 -60.344900 -24.328900 0.000322 -0.000009 8.266520 -1.509790 -100.287000 -22.291500 -0.000108 -0.000004 17.227200 5.444520 -4.444780 -2.192480 -6.469440 -0.000000 -175.281000 -13.696700 -3.052580 39.081100 -0.000007 -0.000012 -0.180872 0.351046 27.259500 40.985400 -0.000006 -0.000013 -0.506388 4.919430 -69.810900 11.754300 -0.000000 0.000003 -0.000296 -0.002573 -16.673400 -2.192510 6.469440 -0.000001 175.418000 22.448300 179.051000 -39.081100 -0.002282 -0.040193 -0.093593 0.197427 26.143200 -40.985400 0.000008 0.000006 5.605130 15.530600 -71.565000 -11.754300 -0.000006 -0.000006 -0.085042 -0.101852 -16.509700
0.000000 0.000000 0.000000 0.000000 0.000000 -0.000000 -0.813975 91.260700 1.312000 89.468800 -3.307600 4.137260 15.735700 0.000005 -0.000001 86.596000 86.378900 -86.615700 8.984550 -0.406207 -0.000000 -0.536585 -0.428492 -0.041423 16.377300 -0.000001 -0.000001 1.614940 -1.776370 1.668490 6.456720 -0.000001 -0.000000 -1.503090 -0.883900 0.980174 12.994200 -0.242716 4.980390 -89.468700 -1.289980 -67.613600 5.348090 -0.000007 -0.000001 -28.224400 -22.902900 -44.426100 24.328600 0.000019 0.000005 20.479600 -4.961600 -103.039000 22.291600 -0.000001 0.000005 20.460400 5.364460 -1.816550 12.994500 -0.242716 -4.980390 89.597900 1.475040 -74.739100 -5.348130 -0.000001 -0.000004 -25.398200 -21.753300 -50.848600 -24.328900 0.000322 -0.000009 6.732450 -1.773430 -104.695000 -22.291500 -0.000108 -0.000004 17.038600 5.455990 -4.855250 -2.192480 -6.469440 -0.000000 -175.278000 -13.864900 -3.069990 39.081100 -0.000007 -0.000012 -0.176072 0.340170 27.366300 40.985400 -0.000006 -0.000013 -0.400078 5.192030 -69.801400 11.754300 -0.000000 0.000003 -0.000290 -0.002530 -16.671900 -2.192510 6.469440 -0.000001 175.295000 22.606500 179.090000 -39.081100 -0.002282 -0.040193 -0.105522 0.221033 26.214700 -40.985400 0.000008 0.000006 5.365950 15.664100 -71.480100 -11.754300 -0.000006 -0.000006 -0.067533 -0.080806 -16.523200
0.000000 0.000000 0.000000 0.000000 0.000000 -0.000000 -0.800248 91.254400 1.256720 89.471500 -3.126170 4.217280 15.735700 0.000005 -0.000001 86.212800 86.241200 -86.225200 8.984550 -0.406207 -0.000000 -0.264959 -0.495548 -0.025913 16.377300 -0.000001 -0.000001 1.165970 -1.697970 1.464090 6.456720 -0.000001 -0.000000 -1.693700 -1.047920 1.261970 12.994200 -0.242716 4.980390 -90.113400 0.281793 -68.053200 5.348090 -0.000007 -0.000001 -28.075100 -12.249800 -37.741900 24.328600 0.000019 0.000005 20.523600 -4.580370 -102.043000 22.291600 -0.000001 0.000005 20.046700 5.384090 -2.425750 12.994500 -0.242716 -4.980390 89.120300 3.414560 -75.540900 -5.348130 -0.000001 -0.000004 -23.640000 -11.087800 -42.515800 -24.328900 0.000322 -0.000009 5.315490 -1.444380 -105.159000 -22.291500 -0.000108 -0.000004 15.714200 5.465750 -5.211720 -2.192480 -6.469440 -0.000000 -175.229000 -13.990700 -3.095650 39.081100 -0.000007 -0.000012 -0.179933 0.346298 27.456200 40.985400 -0.000006 -0.000013 -0.311529 5.502650 -69.785400 11.754300 -0.000000 0.000003 -0.000285 -0.002490 -16.670500 -2.192510 6.469440 -0.000001 175.183000 22.916000 179.166000 -39.081100 -0.002282 -0.040193 -0.113689 0.237279 26.247300 -40.985400 0.000008 0.000006 5.238550 15.852100 -71.437000 -11.754300 -0.000006 -0.000006 -0.074139 -0.088741 -16.518100
